<?xml version="1.0" standalone="no"?>
<!DOCTYPE svg PUBLIC "-//W3C//DTD SVG 20010904//EN"
 "http://www.w3.org/TR/2001/REC-SVG-20010904/DTD/svg10.dtd">
<svg version="1.0" xmlns="http://www.w3.org/2000/svg"
 width="600.000000pt" height="600.000000pt" viewBox="0 0 600.000000 600.000000"
 preserveAspectRatio="xMidYMid meet">
<g transform="translate(0.000000,600.000000) scale(0.050000,-0.050000)"
fill="#000000" stroke="none">
<path d="M6820 8952 c0 -33 -97 -141 -140 -156 -23 -7 -15 -22 32 -62 35 -29
74 -81 88 -114 l25 -62 37 60 c19 32 62 79 95 103 l59 44 -78 74 c-43 41 -78
90 -78 108 0 18 -9 33 -20 33 -11 0 -20 -13 -20 -28z"/>
<path d="M5673 8729 c-71 -206 -198 -351 -400 -453 l-96 -48 85 -39 c167 -75
398 -373 398 -514 0 -19 9 -35 20 -35 11 0 20 12 20 27 0 136 258 439 430 504
l91 35 -79 35 c-170 77 -329 264 -399 469 l-38 114 -32 -95z"/>
<path d="M3834 7780 c-261 -79 -401 -484 -294 -846 45 -151 45 -154 10 -279
-217 -762 316 -1564 1870 -2818 615 -495 1101 -861 1131 -849 78 30 17 93
-396 413 -1976 1530 -2568 2230 -2531 2996 13 270 20 274 153 79 286 -421 830
-862 1247 -1012 467 -167 1452 58 1460 335 1 33 8 61 16 61 28 0 708 -466
1140 -781 625 -457 791 -567 830 -552 62 24 20 81 -150 200 -94 66 -408 292
-700 503 -595 431 -660 475 -1041 714 -175 110 -310 211 -380 286 -828 881
-2011 1656 -2365 1550z m-74 -725 c0 -166 498 -739 893 -1030 150 -109 151
-128 4 -54 -397 201 -754 554 -874 863 -46 119 -73 274 -43 256 11 -7 20 -23
20 -35z"/>
<path d="M6911 7629 c-40 -95 -115 -178 -192 -210 l-57 -23 84 -63 c48 -36
106 -106 134 -163 l51 -100 47 97 c33 68 74 114 134 150 96 59 105 75 52 92
-60 19 -165 140 -193 223 l-27 77 -33 -80z"/>
</g>
</svg>
